<?xml version="1.0" standalone="no"?>
<!DOCTYPE svg PUBLIC "-//W3C//DTD SVG 20010904//EN"
 "http://www.w3.org/TR/2001/REC-SVG-20010904/DTD/svg10.dtd">
<svg version="1.0" xmlns="http://www.w3.org/2000/svg"
 width="1300.000000pt" height="1389.000000pt" viewBox="0 0 1300.000000 1389.000000"
 preserveAspectRatio="xMidYMid meet">

<g transform="translate(0.000000,1389.000000) scale(0.100000,-0.100000)"
fill="#000000" stroke="none">
<path d="M8585 11661 c-77 -22 -167 -70 -228 -122 -91 -79 -170 -222 -183
-334 -4 -31 -12 -62 -19 -68 -6 -7 -101 -27 -211 -44 -109 -18 -502 -82 -873
-143 -371 -60 -675 -109 -676 -107 -1 1 -15 29 -31 62 -44 90 -160 203 -254
248 -41 19 -103 41 -138 48 -88 17 -232 7 -309 -22 -135 -49 -262 -165 -321
-291 -26 -55 -29 -57 -57 -52 -38 7 -365 55 -950 140 -253 37 -466 71 -472 77
-7 5 -13 26 -13 46 -1 53 -43 163 -91 237 -169 260 -532 332 -793 159 -146
-97 -242 -264 -253 -441 -17 -259 139 -491 391 -581 23 -7 77 -19 121 -24 44
-6 81 -11 82 -12 1 -2 25 -101 54 -222 45 -192 69 -271 69 -226 0 7 5 9 12 5
8 -5 9 -2 5 9 -4 12 0 18 17 23 13 3 28 16 35 30 12 27 31 32 31 8 0 -8 -4
-13 -9 -10 -5 3 -12 -1 -15 -10 -9 -24 -7 -31 4 -14 8 12 10 11 8 -5 -3 -43 3
-64 19 -68 14 -4 13 -5 -4 -6 -12 0 -24 -9 -27 -18 -3 -10 -3 0 -1 22 6 51 -6
73 -26 49 -18 -21 -18 -56 0 -70 18 -14 6 -34 -20 -34 -10 0 -19 -3 -19 -7 0
-4 34 -149 76 -323 158 -661 197 -821 240 -1000 79 -325 94 -389 94 -407 0
-11 -18 -28 -47 -43 -62 -33 -161 -131 -200 -200 -64 -112 -95 -265 -74 -360
24 -112 39 -159 67 -210 41 -78 155 -188 234 -227 65 -33 165 -63 207 -63 12
0 24 -4 27 -8 3 -5 37 -231 76 -503 40 -272 89 -610 109 -752 l38 -258 -66
-32 c-45 -22 -90 -56 -141 -107 -122 -120 -171 -238 -171 -405 0 -51 7 -116
16 -149 47 -178 191 -331 369 -394 60 -22 89 -25 186 -26 99 0 124 4 182 26
146 55 251 144 316 266 18 34 39 62 45 62 7 0 242 -42 522 -94 281 -51 691
-127 911 -167 l402 -73 7 -59 c27 -240 210 -439 452 -493 285 -63 565 100 664
386 18 52 22 88 23 177 l1 112 125 51 c657 269 787 325 806 345 12 13 38 25
65 29 98 15 144 40 141 77 0 3 20 5 46 4 43 -1 52 -6 106 -58 32 -31 62 -55
66 -52 5 3 18 -7 30 -22 l21 -28 -16 33 c-9 19 -23 32 -35 32 -10 0 -22 5 -25
10 -8 13 -5 12 32 -1 22 -7 35 -21 46 -50 9 -23 25 -43 39 -48 27 -10 36 -5
20 11 -18 18 -15 38 6 38 14 0 15 -2 2 -10 -12 -8 -12 -10 3 -16 9 -3 15 -10
12 -14 -3 -5 4 -8 15 -7 23 1 28 17 6 17 -23 0 -28 17 -11 34 15 14 13 15 -17
10 -23 -4 -29 -3 -19 4 11 8 11 10 0 15 -12 4 -11 7 1 16 20 15 62 9 68 -9 4
-12 2 -13 -9 -3 -15 15 -39 17 -39 3 0 -5 7 -7 15 -4 20 8 31 -22 15 -41 -10
-12 -9 -15 4 -15 10 0 16 -8 16 -21 0 -14 -5 -19 -13 -16 -8 3 -20 1 -28 -5
-11 -8 -10 -9 4 -4 11 3 24 -2 34 -14 21 -24 33 -26 33 -5 0 8 9 20 20 27 11
7 20 16 20 20 0 11 -23 5 -33 -7 -5 -5 -5 0 -2 13 4 14 2 22 -6 22 -7 0 -9 3
-6 6 4 4 14 1 24 -7 14 -11 13 -9 -2 12 -18 24 -21 25 -32 10 -7 -9 -13 -11
-13 -5 0 12 42 54 55 54 5 0 19 -10 32 -22 21 -19 24 -20 40 -6 23 19 61 29
69 17 3 -5 -2 -9 -10 -9 -9 0 -16 -4 -16 -10 0 -5 -15 -13 -32 -18 -26 -6 -37
-4 -52 10 -10 9 -23 15 -28 12 -4 -3 -8 0 -8 6 0 6 -5 8 -10 5 -6 -4 -4 -12 5
-21 8 -9 19 -13 24 -10 16 10 34 -24 37 -72 1 -26 0 -38 -3 -27 -7 27 -23 44
-23 24 0 -23 22 -47 45 -49 36 -4 55 0 55 10 0 5 -8 6 -17 3 -16 -6 -16 -5 -4
10 11 13 17 15 28 6 7 -7 16 -9 20 -5 3 3 1 6 -5 6 -7 0 -12 10 -12 21 0 19 2
20 17 8 15 -12 16 -12 10 4 -4 10 -7 23 -7 29 0 6 -6 6 -15 -2 -8 -7 -15 -19
-15 -26 0 -8 -7 -14 -15 -14 -20 0 -19 6 7 32 21 21 21 22 3 28 -18 6 -17 8 8
25 15 10 31 14 35 10 4 -4 1 -10 -5 -12 -10 -3 -9 -9 3 -20 11 -12 15 -30 12
-65 -3 -42 -1 -48 16 -48 17 0 18 6 12 79 -6 72 -5 80 12 85 11 4 30 2 43 -4
24 -10 24 -10 -3 -5 -15 3 -30 1 -33 -5 -4 -6 6 -10 24 -10 17 0 31 -4 31 -10
0 -5 -6 -10 -12 -10 -9 0 -8 -4 2 -10 12 -8 12 -10 -5 -10 -15 0 -17 -2 -6 -9
11 -7 11 -9 0 -14 -11 -5 -10 -8 3 -17 10 -6 15 -17 11 -26 -4 -12 0 -15 23
-12 24 2 29 7 28 31 -1 15 3 27 7 27 5 0 9 8 9 18 0 13 -2 14 -9 3 -6 -9 -8
-6 -8 13 0 14 3 23 8 20 5 -3 9 0 9 5 0 6 -5 11 -11 11 -5 0 -8 4 -4 10 8 13
35 1 35 -15 0 -7 -6 -15 -12 -18 -8 -2 -9 -8 -4 -13 5 -5 11 -4 13 4 7 17 30
15 37 -4 8 -21 8 -20 -10 -38 -14 -15 -14 -16 4 -13 51 8 153 96 212 184 74
110 95 184 94 323 0 92 -5 128 -23 178 -86 247 -317 403 -576 389 -49 -3 -98
-8 -107 -12 -10 -4 -18 -3 -18 3 0 5 -140 292 -311 638 -172 346 -369 746
-440 888 l-128 260 63 67 c214 231 210 575 -9 794 -47 47 -93 81 -140 105 -38
19 -71 35 -73 36 -2 1 8 82 22 180 14 99 45 323 70 499 25 176 68 484 96 685
66 477 56 430 94 430 18 0 57 7 87 16 265 79 434 319 416 593 -16 246 -190
454 -432 516 -78 20 -214 18 -290 -4z m-377 -776 c11 -24 -3 -35 -666 -531
-372 -279 -683 -512 -690 -517 -10 -8 -74 50 -262 239 l-249 249 30 63 c17 35
38 100 47 145 9 45 17 83 17 84 1 2 372 63 826 137 453 74 847 139 874 144 28
5 53 10 56 11 3 0 11 -10 17 -24z m-3504 -190 c382 -56 572 -88 577 -97 5 -7
9 -25 9 -39 0 -78 75 -237 147 -311 19 -20 34 -40 32 -45 -14 -35 -116 -203
-122 -203 -5 0 -129 67 -275 149 -795 444 -1132 632 -1156 642 -50 23 -25 25
97 7 67 -11 378 -57 691 -103z m3711 -60 c38 -24 83 -49 101 -55 29 -10 33
-15 28 -38 -2 -15 -27 -187 -54 -382 -27 -195 -81 -582 -120 -860 -38 -278
-72 -510 -74 -516 -2 -6 -28 -14 -58 -17 -63 -6 -157 -40 -188 -67 -13 -11
-18 -20 -12 -20 7 0 12 -5 12 -11 0 -6 -8 -8 -18 -5 -9 3 -244 231 -522 506
-403 399 -502 502 -490 510 13 8 1323 995 1326 999 1 0 32 -19 69 -44z m-4303
-208 c211 -117 548 -305 750 -418 202 -112 368 -208 368 -213 0 -5 -94 -169
-209 -365 -115 -196 -326 -556 -469 -801 -250 -427 -262 -445 -289 -443 -15 1
-64 5 -108 10 l-80 8 -17 70 c-10 39 -38 156 -63 260 -25 105 -84 350 -131
545 -216 899 -334 1394 -334 1405 0 6 28 29 63 52 34 23 75 55 91 72 17 17 33
31 38 31 4 0 180 -96 390 -213z m2308 -500 c126 -126 230 -232 230 -236 0 -4
-71 -61 -157 -126 l-157 -118 -56 29 c-101 54 -715 397 -724 405 -5 4 0 22 11
41 11 18 39 65 62 105 l41 71 47 -14 c62 -19 212 -19 286 1 31 8 83 28 115 44
31 17 60 29 64 28 4 -1 111 -105 238 -230z m-2916 197 c11 -11 16 -12 16 -3 0
7 6 4 15 -7 17 -23 21 -144 4 -144 -7 0 -10 22 -7 63 l3 62 -32 -1 c-18 0 -33
3 -33 8 0 4 -8 8 -17 8 -17 0 -14 3 34 29 1 1 9 -6 17 -15z m2986 6 c0 -5 -7
-10 -16 -10 -8 0 -12 5 -9 10 3 6 10 10 16 10 5 0 9 -4 9 -10z m-12 -24 c10 4
6 -4 -11 -20 -30 -27 -48 -27 -46 2 0 11 3 12 6 5 2 -7 12 -13 21 -13 12 0 13
3 4 12 -7 7 -12 19 -12 28 1 12 2 12 11 -2 5 -10 17 -15 27 -12z m42 9 c0 5 6
3 13 -4 16 -16 17 -143 0 -137 -7 3 -10 -1 -6 -10 3 -7 9 -14 14 -14 13 0 11
-37 -2 -45 -5 -4 -19 1 -30 11 -10 9 -19 12 -19 7 0 -6 -7 -14 -16 -17 -11 -4
-15 -2 -11 8 4 10 1 13 -8 10 -16 -7 -34 23 -29 50 3 22 34 57 34 39 0 -6 -7
-18 -15 -26 -18 -19 -7 -31 13 -14 13 10 15 9 9 -5 -7 -19 17 -45 28 -29 3 6
8 21 10 33 3 12 10 25 16 29 7 4 9 19 7 33 -3 15 -1 29 3 32 5 3 9 10 9 16 0
6 -3 8 -7 5 -9 -10 -33 13 -33 32 0 14 2 14 10 1 5 -8 10 -11 10 -5z m-3060
-19 c0 -2 3 -11 6 -20 5 -12 0 -16 -20 -16 -19 0 -26 5 -26 20 0 13 7 20 20
20 11 0 20 -2 20 -4z m3060 -26 c0 -5 -4 -10 -10 -10 -5 0 -10 5 -10 10 0 6 5
10 10 10 6 0 10 -4 10 -10z m0 -34 c0 -24 -17 -28 -23 -6 -3 13 0 20 9 20 8 0
14 -6 14 -14z m-38 -32 c-8 -14 -9 -13 -9 10 0 18 3 24 9 18 7 -7 7 -16 0 -28z
m-2932 -79 c0 -8 -2 -15 -4 -15 -2 0 -13 -3 -23 -7 -15 -6 -16 -4 -6 9 7 8 10
18 6 21 -3 4 1 7 10 7 10 0 17 -7 17 -15z m2285 -459 c143 -79 268 -151 278
-158 17 -12 -60 -72 -775 -607 -436 -327 -809 -606 -828 -620 l-34 -26 21 35
c11 19 85 145 163 280 79 135 180 308 225 385 60 102 497 849 542 928 5 8 9 6
408 -217z m1405 -348 c228 -225 399 -401 380 -390 -19 11 -213 119 -430 239
-217 121 -450 251 -518 289 -67 37 -119 71 -115 75 16 15 258 198 263 198 3 0
192 -185 420 -411z m-355 -238 c259 -144 560 -312 670 -373 110 -60 205 -115
212 -121 9 -8 10 -26 1 -78 -11 -64 -14 -68 -43 -73 -16 -3 -129 -19 -250 -35
-121 -16 -488 -65 -815 -110 -327 -45 -759 -103 -960 -130 -201 -27 -500 -68
-665 -91 -165 -22 -322 -41 -350 -42 -46 -2 -50 0 -59 26 -8 23 -7 31 4 37 8
5 399 297 868 649 l853 640 32 -18 c18 -10 244 -136 502 -281z m1085 -207 c0
-13 5 -34 11 -45 7 -12 7 -18 1 -14 -6 3 -12 0 -15 -6 -3 -10 -10 -8 -24 5
-21 18 -25 70 -8 97 11 17 35 -9 35 -37z m50 -33 c0 -22 -15 -27 -26 -8 -5 7
-3 8 6 3 10 -6 12 -4 7 8 -3 10 -2 17 3 17 6 0 10 -9 10 -20z m28 -13 c0 -13
-6 -24 -13 -24 -7 0 -10 10 -7 24 2 13 8 23 12 23 4 0 8 -10 8 -23z m-243
-657 c16 -35 16 -43 4 -54 -8 -8 -180 -152 -384 -321 -203 -168 -379 -318
-390 -333 -11 -14 -13 -22 -6 -17 10 5 12 4 7 -4 -5 -7 -9 -24 -11 -37 -1 -14
-9 -32 -16 -39 -18 -18 -91 -27 -86 -11 2 6 18 10 36 8 31 -3 40 13 16 30 -6
5 -5 8 3 8 6 0 12 5 12 11 0 6 -22 -8 -49 -30 -27 -23 -53 -41 -57 -41 -5 0
-52 -37 -104 -81 -180 -153 -299 -249 -308 -249 -5 0 -378 147 -828 326 -450
179 -856 340 -902 357 -82 31 -83 32 -76 62 3 16 9 33 13 36 3 3 265 41 581
83 987 133 1884 255 2170 295 151 21 293 39 316 40 39 1 42 -1 59 -39z m226
-257 c42 -25 58 -41 55 -52 -3 -9 -53 -214 -110 -456 -58 -242 -121 -507 -141
-590 -20 -82 -43 -179 -51 -215 -25 -105 -23 -102 -47 -94 -46 14 -1002 396
-1010 403 -6 6 1226 1041 1240 1041 3 0 32 -16 64 -37z m488 -145 c21 -46 217
-442 434 -880 218 -439 398 -807 402 -818 5 -14 -4 -29 -32 -57 -22 -21 -50
-53 -64 -71 l-25 -33 -230 92 c-934 371 -1017 403 -964 369 13 -8 12 -10 -2
-10 -15 0 -18 -10 -18 -64 0 -45 5 -69 16 -80 16 -17 8 -21 -14 -7 -17 11 -33
119 -18 125 8 3 7 5 0 5 -6 1 -18 -7 -25 -16 -10 -11 -10 -14 -1 -9 6 4 12 3
12 -2 0 -6 -6 -12 -13 -15 -9 -3 -12 -16 -9 -37 3 -21 9 -30 18 -26 22 8 16
-8 -7 -22 -18 -11 -24 -11 -40 4 -14 13 -16 21 -8 36 8 15 8 19 0 14 -6 -4
-11 -3 -11 3 0 19 19 21 29 4 14 -24 14 -7 0 19 -9 16 -8 19 2 13 9 -6 11 -3
6 8 -4 11 -1 17 8 17 7 0 23 12 35 28 l22 27 -26 9 c-14 6 -26 14 -26 18 0 12
-36 -24 -43 -42 -4 -10 -6 -8 -6 7 -1 22 6 31 41 56 11 8 26 53 42 122 23 97
58 244 203 850 19 83 50 211 67 285 l32 135 74 7 c40 4 75 10 78 13 14 13 26
-1 61 -77z m-3154 -562 c881 -351 905 -360 905 -367 0 -7 -496 -422 -510 -427
-5 -2 -66 52 -137 120 -71 68 -216 206 -323 308 -107 102 -287 274 -401 382
-113 108 -228 217 -255 242 l-49 45 75 -28 c41 -16 354 -140 695 -275z m-770
-6 c55 -52 192 -183 305 -290 474 -450 578 -548 630 -597 l54 -51 -33 -28
c-18 -15 -186 -155 -373 -310 l-340 -284 -31 24 c-54 41 -155 84 -227 96 -63
11 -69 14 -74 38 -6 26 -48 314 -162 1107 -30 209 -51 381 -47 383 5 1 35 17
68 36 l60 34 35 -32 c19 -17 80 -74 135 -126z m2365 -629 c704 -279 740 -294
740 -309 0 -7 -54 -240 -120 -517 -66 -276 -120 -505 -120 -507 0 -3 -30 -8
-67 -12 -93 -9 -136 -22 -221 -63 l-73 -36 -77 74 c-87 84 -198 190 -482 459
-466 443 -610 584 -607 594 6 17 571 485 587 485 8 1 206 -75 440 -168z m1007
-203 c-3 -7 -5 -2 -5 12 0 14 2 19 5 13 2 -7 2 -19 0 -25z m-20 0 c-3 -8 -6
-5 -6 6 -1 11 2 17 5 13 3 -3 4 -12 1 -19z m98 -82 c0 -35 -4 -62 -8 -59 -9 5
-7 123 2 123 3 0 6 -29 6 -64z m430 -317 c253 -100 507 -201 564 -223 l105
-41 1 -111 2 -111 -196 -81 c-108 -44 -344 -142 -526 -217 -181 -75 -371 -153
-422 -174 l-92 -39 -14 22 c-29 42 -110 117 -163 148 -30 18 -54 39 -54 46 0
8 27 125 59 261 60 246 69 284 136 566 19 83 37 156 40 162 3 10 16 8 52 -6
26 -11 255 -101 508 -202z m-2541 -42 c99 -95 327 -312 506 -482 179 -169 366
-348 416 -397 l91 -88 -21 -44 c-12 -25 -28 -45 -36 -45 -8 -1 -87 12 -175 29
-88 16 -169 29 -180 29 -17 -1 -17 -2 -2 -6 9 -2 17 -9 17 -14 0 -15 -15 -10
-46 13 -15 13 -25 17 -20 10 5 -8 1 -12 -11 -12 -15 0 -16 -2 -3 -10 13 -9 13
-10 0 -10 -8 0 -26 13 -40 29 -23 26 -38 31 -170 55 -372 66 -1186 217 -1196
220 -6 2 -14 31 -17 64 -4 32 -18 92 -33 131 l-27 72 34 29 c19 15 187 156
374 313 187 157 344 286 349 286 5 1 90 -77 190 -172z m4051 -747 c3 -5 -1
-10 -9 -10 -9 0 -16 5 -16 10 0 6 4 10 9 10 6 0 13 -4 16 -10z m-288 -60 c3
-10 2 -11 -4 -4 -4 6 -15 14 -23 17 -11 5 -9 6 4 4 11 -1 21 -9 23 -17z"/>
<path d="M3486 10117 c3 -10 9 -15 12 -12 3 3 0 11 -7 18 -10 9 -11 8 -5 -6z"/>
<path d="M6506 9945 c-3 -8 -1 -15 4 -15 6 0 10 7 10 15 0 8 -2 15 -4 15 -2 0
-6 -7 -10 -15z"/>
<path d="M6440 9939 c0 -5 5 -7 10 -4 6 3 10 8 10 11 0 2 -4 4 -10 4 -5 0 -10
-5 -10 -11z"/>
<path d="M6526 9925 c-3 -8 -1 -15 4 -15 6 0 10 7 10 15 0 8 -2 15 -4 15 -2 0
-6 -7 -10 -15z"/>
<path d="M3435 10080 c-3 -5 -1 -10 4 -10 6 0 11 5 11 10 0 6 -2 10 -4 10 -3
0 -8 -4 -11 -10z"/>
<path d="M7943 8670 c-6 -17 -7 -30 -2 -30 9 0 24 48 17 55 -2 2 -9 -9 -15
-25z"/>
<path d="M7955 8630 c-3 -5 -1 -10 4 -10 6 0 11 5 11 10 0 6 -2 10 -4 10 -3 0
-8 -4 -11 -10z"/>
<path d="M7000 7199 c0 -5 5 -7 10 -4 6 3 10 8 10 11 0 2 -4 4 -10 4 -5 0 -10
-5 -10 -11z"/>
<path d="M3460 10009 c0 -5 5 -7 10 -4 6 3 10 8 10 11 0 2 -4 4 -10 4 -5 0
-10 -5 -10 -11z"/>
<path d="M3437 9952 c2 -8 3 -20 3 -28 0 -16 26 -19 35 -4 3 5 0 7 -7 5 -8 -3
-18 4 -24 17 -6 13 -9 17 -7 10z"/>
<path d="M9808 4953 c6 -2 18 -2 25 0 6 3 1 5 -13 5 -14 0 -19 -2 -12 -5z"/>
<path d="M9810 4887 l5 -52 3 44 c2 24 0 47 -5 52 -4 4 -6 -15 -3 -44z"/>
<path d="M9960 4925 c0 -8 2 -15 4 -15 2 0 6 7 10 15 3 8 1 15 -4 15 -6 0 -10
-7 -10 -15z"/>
<path d="M9593 4862 c0 -10 7 -19 13 -19 9 0 10 5 3 19 -5 10 -12 18 -14 18
-2 0 -3 -8 -2 -18z"/>
<path d="M0 445 l0 -445 6500 0 6500 0 0 445 0 445 -6500 0 -6500 0 0 -445z
m780 54 l0 -200 -32 3 -33 3 -3 185 c-1 101 0 190 2 197 3 7 19 13 36 13 l30
0 0 -201z m-115 106 c24 -23 25 -30 25 -149 0 -68 3 -131 6 -140 5 -13 -1 -16
-30 -16 -27 0 -36 4 -36 17 0 15 -2 14 -20 -2 -27 -24 -70 -22 -92 5 -40 49
-11 130 61 170 46 27 55 41 37 66 -15 20 -36 11 -36 -17 0 -15 -7 -19 -35 -19
-32 0 -35 2 -35 30 0 46 39 80 90 80 30 0 47 -6 65 -25z m273 19 c41 -11 52
-51 52 -194 l0 -130 -29 0 c-17 0 -32 4 -36 9 -3 6 -16 4 -31 -4 -49 -25 -94
8 -94 69 0 50 17 76 76 117 34 23 44 36 42 52 -4 29 -30 28 -43 0 -7 -17 -18
-23 -43 -23 -33 0 -33 1 -27 33 12 60 66 89 133 71z m234 -13 c12 -19 12 -19
36 0 30 23 55 24 76 3 13 -13 16 -42 16 -165 l0 -150 -32 3 -32 3 3 115 c2 91
-1 119 -13 135 -27 34 -36 0 -36 -132 l0 -123 -35 0 -34 0 -3 133 c-3 109 -6
132 -18 132 -12 0 -15 -23 -18 -132 l-3 -133 -34 0 -35 0 0 160 0 160 35 0
c21 0 35 -5 35 -12 0 -8 6 -6 17 5 23 23 60 22 75 -2z m218 -116 c5 -122 6
-130 25 -130 19 0 20 8 23 128 l3 127 34 0 35 0 0 -185 c0 -184 0 -186 -25
-210 -20 -21 -34 -25 -85 -25 l-60 0 0 30 c0 27 3 30 34 30 53 0 66 9 66 43 0
28 -1 29 -13 13 -17 -23 -63 -24 -85 -2 -14 14 -18 42 -20 152 -2 75 -1 141 1
148 3 6 18 12 33 11 l29 0 5 -130z m9915 85 c0 -27 -4 -50 -10 -50 -5 0 -10
23 -10 50 0 28 5 50 10 50 6 0 10 -22 10 -50z m470 0 c0 -27 -4 -50 -10 -50
-5 0 -10 23 -10 50 0 28 5 50 10 50 6 0 10 -22 10 -50z m93 38 c7 -7 12 -24
12 -38 0 -34 -17 -50 -52 -50 -27 0 -28 2 -28 50 0 48 1 50 28 50 15 0 33 -5
40 -12z m172 -3 c10 -12 10 -18 0 -30 -10 -12 -10 -18 0 -30 7 -9 10 -18 7
-21 -3 -3 -12 3 -19 15 -16 26 -28 27 -28 1 0 -11 -4 -20 -10 -20 -5 0 -10 23
-10 50 0 46 2 50 24 50 13 0 29 -7 36 -15z m68 -37 c-1 -51 -2 -51 -5 -10 -2
23 -9 42 -14 42 -6 0 -7 5 -4 10 15 24 25 6 23 -42z m102 37 c10 -12 10 -18 0
-30 -7 -8 -19 -15 -26 -15 -8 0 -14 -9 -14 -20 0 -11 -4 -20 -10 -20 -5 0 -10
23 -10 50 0 46 2 50 24 50 13 0 29 -7 36 -15z m35 -5 c3 -11 10 -20 15 -20 5
0 12 9 15 20 3 11 10 20 15 20 5 0 2 -12 -6 -27 -7 -16 -14 -38 -14 -50 0 -13
-4 -23 -10 -23 -5 0 -10 9 -10 20 0 12 -7 34 -15 50 -9 17 -11 30 -6 30 5 0
13 -9 16 -20z m133 8 c7 -7 12 -24 12 -38 0 -34 -17 -50 -52 -50 -27 0 -28 2
-28 50 0 48 1 50 28 50 15 0 33 -5 40 -12z m100 0 c7 -7 12 -24 12 -38 0 -34
-17 -50 -52 -50 -27 0 -28 2 -28 50 0 48 1 50 28 50 15 0 33 -5 40 -12z
m-1041 -53 l1 -40 -6 35 c-4 22 -13 35 -22 35 -9 0 -17 -13 -21 -35 l-6 -35
-2 38 c-1 26 -6 37 -16 37 -8 0 -15 -3 -16 -7 -2 -23 -10 -57 -14 -62 -3 -2
-5 14 -5 36 l0 40 53 -1 52 -1 2 -40z m81 4 c3 -34 1 -36 -25 -35 -37 1 -39
37 -3 47 l25 6 -25 12 -25 11 25 -3 c21 -2 25 -8 28 -38z m80 -19 c-3 -50 -5
-55 -28 -57 -25 -3 -25 -3 -2 7 12 5 22 15 22 23 0 8 -10 13 -22 13 -17 -1
-24 5 -26 22 -5 37 5 52 33 50 25 -2 26 -5 23 -58z m90 38 c3 -14 -3 -18 -23
-18 -33 0 -29 -21 6 -32 22 -6 21 -7 -6 -5 -23 2 -31 7 -33 25 -2 13 -1 30 2
38 8 21 50 14 54 -8z m232 12 c0 -5 -4 -10 -10 -10 -5 0 -10 5 -10 10 0 6 5
10 10 10 6 0 10 -4 10 -10z m0 -60 c0 -5 -4 -10 -10 -10 -5 0 -10 5 -10 10 0
6 5 10 10 10 6 0 10 -4 10 -10z m-160 -190 c0 -47 -3 -60 -15 -60 -12 0 -15
13 -15 60 0 47 3 60 15 60 12 0 15 -13 15 -60z m-580 10 c0 -11 5 -20 10 -20
6 0 10 9 10 21 0 29 32 21 41 -11 l6 -25 8 28 c7 28 25 38 25 13 0 -27 -22
-76 -35 -76 -7 0 -16 15 -20 33 l-8 32 -6 -30 c-9 -44 -33 -37 -47 13 -11 35
-11 42 2 42 8 0 14 -9 14 -20z m140 0 c0 -11 5 -20 10 -20 6 0 10 9 10 21 0
29 32 21 41 -11 l6 -25 8 28 c7 28 25 38 25 13 0 -27 -22 -76 -35 -76 -7 0
-16 15 -20 33 l-8 32 -6 -30 c-10 -48 -36 -43 -48 10 -8 36 -8 45 3 45 8 0 14
-9 14 -20z m140 0 c0 -11 5 -20 10 -20 6 0 10 9 10 21 0 29 32 21 41 -11 l6
-25 8 28 c7 28 25 38 25 13 0 -27 -22 -76 -35 -76 -7 0 -16 15 -20 33 l-8 32
-6 -30 c-9 -44 -33 -37 -47 13 -11 35 -11 42 2 42 8 0 14 -9 14 -20z m240 -10
c10 -42 2 -56 -33 -55 -27 0 -32 4 -32 25 0 17 7 26 25 31 24 7 24 7 3 8 -13
1 -23 6 -23 12 0 6 12 9 27 7 19 -2 29 -10 33 -28z m148 -15 c3 -40 2 -41 -30
-40 -28 0 -33 4 -33 25 0 17 7 26 25 31 24 7 25 7 2 8 -14 1 -20 5 -17 12 4 5
17 9 28 7 18 -2 23 -11 25 -43z m157 35 c2 -4 6 -24 9 -44 3 -27 1 -36 -10
-36 -9 0 -14 11 -14 35 0 24 -5 35 -15 35 -10 0 -15 -11 -15 -35 0 -19 -4 -35
-10 -35 -5 0 -10 16 -10 35 0 24 -5 35 -15 35 -10 0 -15 -11 -15 -35 0 -24 -5
-35 -15 -35 -11 0 -15 12 -15 44 l0 43 60 0 c33 0 63 -3 65 -7z m60 -17 l8
-28 10 28 c6 15 17 27 25 27 10 0 12 -6 7 -17 -4 -10 -14 -37 -22 -61 -15 -42
-36 -62 -51 -48 -3 4 0 11 8 16 12 8 12 16 -2 59 -13 40 -13 51 -3 51 7 0 16
-12 20 -27z m175 18 c0 -5 -9 -11 -20 -14 -11 -3 -20 -13 -20 -22 0 -9 9 -19
20 -22 25 -7 26 -23 2 -23 -24 0 -42 19 -42 45 0 12 5 26 12 33 14 14 48 16
48 3z m90 -5 c28 -35 -11 -93 -47 -70 -36 22 -23 84 17 84 10 0 23 -7 30 -14z
m161 -14 c10 -27 4 -62 -12 -62 -5 0 -9 16 -9 35 0 24 -5 35 -15 35 -10 0 -15
-11 -15 -35 0 -19 -4 -35 -10 -35 -5 0 -10 16 -10 35 0 24 -5 35 -15 35 -10 0
-15 -11 -15 -35 0 -24 -5 -35 -15 -35 -11 0 -15 12 -15 44 l0 43 61 0 c55 0
61 -2 70 -25z m-890 -55 c-13 -13 -26 -3 -16 12 3 6 11 8 17 5 6 -4 6 -10 -1
-17z m550 0 c-13 -13 -26 -3 -16 12 3 6 11 8 17 5 6 -4 6 -10 -1 -17z"/>
<path d="M597 435 c-30 -28 -36 -62 -12 -71 24 -10 42 13 43 56 1 22 1 40 -1
40 -1 0 -15 -11 -30 -25z"/>
<path d="M893 438 c-30 -32 -31 -78 -3 -78 25 0 32 17 28 65 l-3 37 -22 -24z"/>
<path d="M11820 580 c0 -33 3 -41 16 -38 26 5 41 35 28 56 -6 9 -19 18 -28 20
-13 3 -16 -5 -16 -38z"/>
<path d="M12000 600 c0 -11 7 -20 15 -20 8 0 15 9 15 20 0 11 -7 20 -15 20 -8
0 -15 -9 -15 -20z"/>
<path d="M12170 600 c0 -11 7 -20 15 -20 8 0 15 9 15 20 0 11 -7 20 -15 20 -8
0 -15 -9 -15 -20z"/>
<path d="M12330 580 c0 -33 3 -41 16 -38 9 2 22 11 28 21 13 20 -2 50 -28 55
-13 3 -16 -5 -16 -38z"/>
<path d="M12430 580 c0 -33 3 -41 16 -38 26 5 41 35 28 56 -6 9 -19 18 -28 20
-13 3 -16 -5 -16 -38z"/>
<path d="M11470 555 c0 -8 6 -15 14 -15 8 0 16 7 20 15 4 10 -1 15 -14 15 -11
0 -20 -7 -20 -15z"/>
<path d="M11554 586 c-8 -22 3 -49 19 -43 6 2 12 14 12 27 0 27 -22 39 -31 16z"/>
<path d="M11645 590 c-3 -5 3 -10 15 -10 12 0 18 5 15 10 -3 6 -10 10 -15 10
-5 0 -12 -4 -15 -10z"/>
<path d="M11657 333 c-12 -11 -8 -23 8 -23 8 0 15 7 15 15 0 16 -12 20 -23 8z"/>
<path d="M11807 333 c-12 -11 -8 -23 8 -23 8 0 15 7 15 15 0 16 -12 20 -23 8z"/>
<path d="M12283 344 c-8 -21 13 -42 28 -27 13 13 5 43 -11 43 -6 0 -13 -7 -17
-16z"/>
</g>
</svg>
