<?xml version="1.0" standalone="no"?>
<!DOCTYPE svg PUBLIC "-//W3C//DTD SVG 20010904//EN"
 "http://www.w3.org/TR/2001/REC-SVG-20010904/DTD/svg10.dtd">
<svg version="1.0" xmlns="http://www.w3.org/2000/svg"
 width="444.000000pt" height="360.000000pt" viewBox="0 0 444.000000 360.000000"
 preserveAspectRatio="xMidYMid meet">

<g transform="translate(0.000000,360.000000) scale(0.100000,-0.100000)"
fill="#000000" stroke="none">
<path d="M1644 2722 c-92 -38 -171 -118 -189 -193 -4 -14 -39 -59 -78 -100
-112 -115 -157 -220 -157 -365 0 -51 -6 -85 -21 -119 -46 -104 -42 -242 11
-345 19 -37 20 -48 11 -86 -48 -188 54 -386 249 -482 44 -22 90 -55 114 -80
59 -64 106 -85 204 -90 77 -4 87 -2 147 27 110 54 155 135 155 279 l0 75 74
-71 74 -72 180 0 180 0 12 -30 c39 -93 166 -126 248 -64 43 33 62 73 62 129 0
107 -90 180 -195 161 -42 -8 -98 -54 -115 -96 l-12 -30 -172 0 -171 0 -83 83
-82 82 0 73 0 72 153 0 153 0 64 -65 64 -65 213 0 c203 0 212 -1 218 -20 9
-30 53 -79 86 -95 69 -36 180 0 213 69 24 50 21 126 -7 166 -71 106 -232 95
-283 -20 l-18 -40 -196 0 -196 0 -64 65 -64 65 -168 0 -168 0 0 100 0 100 253
0 252 0 23 -42 c31 -58 65 -81 127 -86 99 -8 165 47 173 143 5 67 -18 118 -69
152 -33 22 -47 25 -97 21 -71 -5 -114 -32 -138 -88 l-18 -40 -253 0 -253 0 0
90 0 90 163 0 163 0 64 65 64 65 202 0 202 0 12 -30 c7 -17 28 -43 46 -60 78
-68 201 -43 249 51 23 43 19 120 -8 160 -31 48 -105 83 -156 74 -54 -9 -100
-42 -124 -87 -13 -26 -26 -38 -40 -39 -12 0 -107 0 -211 0 l-189 0 -67 -65
-67 -64 -151 0 -152 0 0 68 0 67 88 88 87 87 166 0 165 0 18 -40 c24 -56 67
-83 138 -88 50 -4 64 -1 97 21 51 34 74 85 69 151 -8 96 -75 152 -173 144 -62
-5 -96 -28 -127 -85 l-23 -43 -180 0 -181 0 -69 -70 -70 -71 -5 118 c-5 103
-9 125 -33 175 -33 67 -93 121 -167 149 -65 24 -188 25 -246 1z m258 -79 c30
-17 66 -48 83 -72 27 -38 30 -51 30 -116 0 -65 -3 -78 -30 -117 -37 -52 -113
-96 -181 -104 -87 -11 -98 -64 -13 -64 60 0 136 28 189 70 l40 32 0 -137 0
-136 -22 7 c-46 15 -105 19 -165 10 -68 -10 -104 0 -154 42 -35 29 -64 26 -64
-8 0 -16 13 -34 42 -56 23 -18 47 -34 54 -36 9 -3 5 -14 -10 -35 -13 -17 -23
-46 -24 -64 -2 -28 2 -35 21 -37 17 -3 26 4 36 30 40 95 145 133 244 88 l42
-19 0 -260 0 -259 -51 -12 c-66 -16 -132 -77 -148 -136 -14 -52 -6 -74 25 -74
18 0 25 7 29 28 14 65 70 122 121 122 24 0 24 0 24 -132 0 -119 -3 -137 -23
-173 -45 -79 -164 -123 -261 -95 -84 23 -156 107 -156 179 0 39 24 98 51 127
25 27 21 58 -7 62 -44 6 -104 -94 -104 -173 0 -25 -4 -45 -9 -45 -6 0 -38 19
-72 43 -70 47 -131 127 -151 197 -13 48 -17 154 -6 166 4 4 24 -8 44 -25 20
-18 60 -44 90 -59 49 -24 56 -25 69 -11 23 22 10 42 -41 68 -65 31 -146 111
-180 178 -25 51 -29 69 -29 148 0 78 4 97 28 145 30 61 62 99 125 148 42 34
55 68 28 78 -17 7 -49 -9 -95 -47 -19 -16 -37 -27 -39 -25 -8 9 22 123 46 174
13 29 45 76 70 103 l45 51 16 -43 c20 -52 44 -70 66 -48 14 14 14 20 0 58 -44
125 24 246 165 292 14 5 55 7 92 5 51 -2 79 -10 120 -33z m908 -170 c108 -63
21 -224 -93 -172 -30 13 -57 59 -57 94 0 36 59 95 95 95 15 0 40 -7 55 -17z
m371 -262 c39 -39 40 -89 2 -131 -38 -42 -79 -48 -122 -18 -19 13 -39 36 -44
51 -32 98 90 171 164 98z m-372 -355 c91 -47 50 -186 -55 -186 -38 0 -94 59
-94 100 0 23 10 42 34 66 37 37 70 43 115 20z m366 -399 c17 -14 28 -36 32
-63 5 -36 1 -46 -25 -75 -25 -28 -37 -34 -70 -34 -72 0 -119 70 -92 136 24 58
107 77 155 36z m-342 -258 c38 -41 37 -90 -2 -130 -31 -31 -83 -39 -122 -19
-48 26 -61 117 -21 153 47 43 102 41 145 -4z"/>
<path d="M1457 1773 c-15 -15 -5 -79 18 -119 27 -46 107 -94 157 -94 27 0 28
-2 27 -48 -2 -59 7 -88 28 -96 28 -11 43 13 37 55 -9 51 9 90 57 128 21 18 46
45 54 61 31 59 -17 84 -56 29 -31 -44 -99 -72 -152 -63 -51 8 -117 68 -117
106 0 36 -33 62 -53 41z"/>
</g>
</svg>
